<svg width="20" height="20" viewBox="0 0 20 20" fill="none" xmlns="http://www.w3.org/2000/svg">
<path d="M18 5C18.0026 5.39603 17.884 5.78338 17.66 6.11C17.4777 6.38327 17.2309 6.60742 16.9413 6.76265C16.6518 6.91787 16.3285 6.99939 16 7H4C3.46957 7 2.96086 6.78929 2.58579 6.41421C2.21071 6.03914 2 5.53043 2 5C2 4.46957 2.21071 3.96086 2.58579 3.58579C2.96086 3.21071 3.46957 3 4 3H16C16.5304 3 17.0391 3.21071 17.4142 3.58579C17.7893 3.96086 18 4.46957 18 5Z" fill="#4C4DDC"/>
<path fill-rule="evenodd" clip-rule="evenodd" d="M3 8V15C3 15.5304 3.21071 16.0391 3.58579 16.4142C3.96086 16.7893 4.46957 17 5 17H15C15.5304 17 16.0391 16.7893 16.4142 16.4142C16.7893 16.0391 17 15.5304 17 15V8H3ZM12.94 10.72L9.65 14C9.57526 14.0787 9.4853 14.1413 9.3856 14.1841C9.28589 14.2269 9.17851 14.249 9.07 14.249C8.96149 14.249 8.85411 14.2269 8.75441 14.1841C8.6547 14.1413 8.56474 14.0787 8.49 14L6.85 12.36C6.71804 12.2034 6.64946 12.0031 6.65774 11.7985C6.66601 11.5939 6.75056 11.3997 6.89473 11.2543C7.03891 11.1089 7.23229 11.0227 7.43683 11.0126C7.64136 11.0026 7.84226 11.0694 8 11.2L9.06 12.26L11.77 9.55C11.8462 9.4738 11.9366 9.41336 12.0361 9.37212C12.1356 9.33088 12.2423 9.30966 12.35 9.30966C12.4577 9.30966 12.5644 9.33088 12.6639 9.37212C12.7634 9.41336 12.8538 9.4738 12.93 9.55C13.0858 9.70417 13.1743 9.91374 13.1762 10.1329C13.1781 10.3521 13.0932 10.5632 12.94 10.72Z" fill="#4C4DDC"/>
</svg>
