<svg width="260" height="260" viewBox="0 0 260 260" fill="none" xmlns="http://www.w3.org/2000/svg">
<g clip-path="url(#clip0_157_375)">
<path d="M85.2804 196.897C85.2804 196.897 98.9092 164.069 49.2031 132.605C5.05895 104.663 51.6112 60.2148 77.6205 53.1778C111.314 44.0612 148.048 74.2364 165.509 50.3501C182.97 26.4642 233.66 70.8021 209.55 108.167C179.557 154.648 214.145 156.053 219.522 176.662C223.38 191.454 194.567 231.442 161.886 218.093C134.387 206.86 129.208 218.27 122.425 224.917C112.64 234.502 77.3556 227.063 85.2804 196.897Z" fill="#DFE0F3"/>
<path d="M65.0292 184.558L107.049 144.05L98.9314 135.63L56.9119 176.138L65.0292 184.558Z" fill="#A5A6ED"/>
<path d="M53.624 200.146L86.3161 168.63C86.4981 168.455 86.503 168.165 86.3275 167.983L74.2563 155.46C74.0808 155.278 73.7909 155.274 73.6089 155.449L40.9168 186.964C40.7349 187.14 40.73 187.43 40.9055 187.612L52.9767 200.133C53.1522 200.315 53.4421 200.321 53.624 200.146Z" fill="#4C4DDC"/>
<path d="M87.3161 106.764C86.6226 135.318 109.208 159.027 137.762 159.721C166.315 160.414 190.025 137.829 190.718 109.275C191.412 80.7214 168.826 57.0119 140.273 56.3184C111.719 55.6249 88.0096 78.2101 87.3161 106.764Z" fill="#4C4DDC"/>
<path d="M95.7518 106.968C95.1715 130.863 114.072 150.704 137.967 151.284C161.861 151.864 181.702 132.965 182.282 109.07C182.863 85.1755 163.962 65.3347 140.068 64.7544C116.173 64.1741 96.3321 83.074 95.7518 106.968Z" fill="#A5A6ED"/>
<path d="M107.021 166.737C107.359 165.789 108.402 165.295 109.35 165.634L126.512 171.767C127.46 172.105 127.953 173.148 127.615 174.096L121.482 191.258C121.143 192.206 120.1 192.699 119.153 192.361L101.991 186.228C101.043 185.889 100.549 184.846 100.888 183.899L107.021 166.737Z" fill="#4C4DDC"/>
<path d="M107.817 169.924C107.986 169.451 108.508 169.204 108.982 169.373L124.427 174.892C124.901 175.062 125.148 175.583 124.979 176.057C124.809 176.531 124.288 176.778 123.814 176.608L108.368 171.089C107.894 170.92 107.648 170.398 107.817 169.924Z" fill="#F5F5F5"/>
<path d="M105.364 176.789C105.533 176.315 106.055 176.068 106.529 176.238L110.533 177.669C111.007 177.838 111.254 178.359 111.084 178.833C110.915 179.307 110.394 179.554 109.92 179.385L105.915 177.954C105.441 177.784 105.195 177.263 105.364 176.789Z" fill="#F5F5F5"/>
<path d="M106.59 173.357C106.76 172.883 107.281 172.636 107.755 172.805L114.62 175.258C115.094 175.428 115.341 175.949 115.171 176.423C115.002 176.897 114.48 177.144 114.007 176.975L107.142 174.521C106.668 174.352 106.421 173.831 106.59 173.357Z" fill="#F5F5F5"/>
<path d="M45.4018 87.1698C45.2654 85.8526 46.2227 84.6741 47.5399 84.5377L71.3907 82.0678C72.7079 81.9314 73.8863 82.8886 74.0227 84.2058L76.4927 108.057C76.6291 109.374 75.6719 110.552 74.3546 110.689L50.5039 113.159C49.1866 113.295 48.0082 112.338 47.8718 111.021L45.4018 87.1698Z" fill="#A5A6ED"/>
<path d="M48.1574 90.5004C48.0892 89.8418 48.5678 89.2526 49.2265 89.1844L70.6921 86.9614C71.3507 86.8932 71.9399 87.3718 72.0082 88.0305C72.0764 88.6891 71.5977 89.2783 70.9391 89.3465L49.4734 91.5695C48.8148 91.6377 48.2256 91.159 48.1574 90.5004Z" fill="#4C4DDC"/>
<path d="M49.1454 100.041C49.0772 99.3821 49.5558 98.7929 50.2144 98.7247L55.7796 98.1484C56.4382 98.0801 57.0274 98.5588 57.0956 99.2174C57.1639 99.876 56.6852 100.465 56.0266 100.533L50.4614 101.11C49.8028 101.178 49.2136 100.699 49.1454 100.041Z" fill="#4C4DDC"/>
<path d="M48.6514 95.2706C48.5832 94.6119 49.0618 94.0227 49.7204 93.9545L59.2607 92.9665C59.9194 92.8983 60.5086 93.377 60.5768 94.0356C60.645 94.6942 60.1664 95.2834 59.5077 95.3516L49.9674 96.3396C49.3088 96.4078 48.7196 95.9292 48.6514 95.2706Z" fill="#4C4DDC"/>
<path d="M151.827 190.733L149.61 191.324L144.404 186.701L145.903 192.314L143.686 192.906L141.256 183.805L143.473 183.213L148.686 187.863L147.181 182.223L149.398 181.632L151.827 190.733ZM159.305 188.833C158.45 189.062 157.61 189.073 156.787 188.867C155.972 188.658 155.258 188.256 154.645 187.661C154.039 187.054 153.617 186.306 153.379 185.416C153.142 184.525 153.136 183.671 153.361 182.851C153.596 182.029 154.014 181.325 154.617 180.738C155.228 180.149 155.961 179.74 156.817 179.512C157.672 179.283 158.508 179.273 159.323 179.482C160.146 179.688 160.856 180.091 161.451 180.691C162.055 181.289 162.476 182.033 162.714 182.924C162.951 183.814 162.958 184.673 162.735 185.501C162.509 186.32 162.095 187.024 161.493 187.61C160.89 188.197 160.161 188.605 159.305 188.833ZM158.766 186.811C159.492 186.617 160.006 186.22 160.309 185.621C160.62 185.019 160.67 184.321 160.458 183.526C160.243 182.722 159.852 182.141 159.284 181.784C158.723 181.415 158.079 181.328 157.353 181.521C156.619 181.718 156.094 182.112 155.781 182.705C155.475 183.296 155.431 183.997 155.648 184.81C155.863 185.614 156.251 186.2 156.812 186.569C157.38 186.926 158.031 187.007 158.766 186.811ZM156.47 208.123L154.253 208.715L149.047 204.092L150.546 209.705L148.329 210.297L145.899 201.196L148.116 200.604L153.329 205.254L151.824 199.614L154.041 199.022L156.47 208.123ZM163.948 206.224C163.093 206.453 162.253 206.464 161.43 206.258C160.615 206.049 159.901 205.647 159.288 205.052C158.682 204.445 158.26 203.697 158.022 202.806C157.785 201.916 157.779 201.061 158.004 200.242C158.239 199.42 158.657 198.716 159.26 198.129C159.871 197.54 160.604 197.131 161.46 196.903C162.316 196.674 163.151 196.664 163.966 196.873C164.789 197.079 165.499 197.482 166.094 198.082C166.698 198.68 167.119 199.424 167.357 200.314C167.594 201.205 167.601 202.064 167.378 202.892C167.153 203.711 166.738 204.414 166.136 205.001C165.533 205.588 164.804 205.996 163.948 206.224ZM163.409 204.202C164.135 204.008 164.649 203.611 164.952 203.012C165.264 202.41 165.313 201.712 165.101 200.917C164.886 200.113 164.495 199.532 163.927 199.174C163.366 198.806 162.722 198.718 161.996 198.912C161.262 199.108 160.737 199.503 160.424 200.096C160.118 200.687 160.074 201.388 160.291 202.201C160.506 203.005 160.894 203.591 161.455 203.959C162.023 204.317 162.674 204.398 163.409 204.202ZM175.472 193.301L175.946 195.077L173.535 195.721L175.49 203.045L173.273 203.637L171.318 196.313L168.906 196.956L168.432 195.18L175.472 193.301ZM180.818 193.776L181.31 195.617L184.279 194.824L184.735 196.536L181.767 197.328L182.3 199.325L185.657 198.428L186.132 200.204L180.557 201.693L178.127 192.592L183.702 191.103L184.176 192.88L180.818 193.776ZM192.431 198.62C191.765 198.798 191.14 198.849 190.555 198.773C189.97 198.698 189.461 198.491 189.028 198.153C188.604 197.813 188.304 197.347 188.127 196.755L190.487 196.125C190.611 196.453 190.797 196.681 191.045 196.809C191.29 196.929 191.572 196.946 191.892 196.861C192.22 196.773 192.46 196.631 192.611 196.433C192.759 196.227 192.798 195.99 192.726 195.722C192.666 195.497 192.539 195.332 192.344 195.226C192.158 195.119 191.94 195.047 191.69 195.012C191.448 194.975 191.108 194.95 190.67 194.937C190.034 194.913 189.505 194.859 189.085 194.777C188.665 194.695 188.274 194.512 187.911 194.229C187.549 193.947 187.291 193.52 187.139 192.95C186.913 192.103 187.043 191.359 187.53 190.72C188.015 190.072 188.749 189.617 189.735 189.354C190.737 189.086 191.61 189.112 192.353 189.433C193.093 189.744 193.599 190.322 193.871 191.166L191.473 191.806C191.377 191.517 191.208 191.317 190.965 191.206C190.72 191.086 190.442 191.068 190.131 191.151C189.863 191.222 189.667 191.353 189.542 191.544C189.414 191.726 189.387 191.951 189.458 192.219C189.537 192.513 189.736 192.705 190.056 192.796C190.377 192.886 190.856 192.948 191.495 192.981C192.135 193.023 192.662 193.086 193.073 193.171C193.493 193.253 193.883 193.431 194.244 193.705C194.604 193.98 194.857 194.389 195.002 194.934C195.14 195.452 195.132 195.959 194.977 196.454C194.831 196.947 194.541 197.385 194.106 197.77C193.672 198.154 193.114 198.438 192.431 198.62ZM158.605 217.469L157.081 224.404L157.884 227.412L155.667 228.003L154.864 224.996L150.087 219.743L152.602 219.072L155.383 222.413L156.115 218.134L158.605 217.469ZM163.732 218.003L164.223 219.844L167.192 219.052L167.649 220.763L164.68 221.556L165.213 223.552L168.571 222.656L169.045 224.432L163.47 225.92L161.04 216.819L166.615 215.331L167.089 217.107L163.732 218.003ZM176.144 212.787L176.618 214.563L174.207 215.207L176.163 222.531L173.946 223.123L171.99 215.798L169.579 216.442L169.105 214.666L176.144 212.787Z" fill="#0A0A0A"/>
</g>
<defs>
<clipPath id="clip0_157_375">
<rect width="260" height="260" fill="white"/>
</clipPath>
</defs>
</svg>
