<svg width="36" height="36" viewBox="0 0 36 36" fill="none" xmlns="http://www.w3.org/2000/svg">
<path d="M1.32025 10.4108C1.14338 9.54495 1.70193 8.69964 2.56781 8.52276L18.2459 5.32023C19.1118 5.14336 19.9571 5.70191 20.134 6.56779L23.3365 22.2459C23.5134 23.1118 22.9548 23.9571 22.0889 24.1339L6.41085 27.3365C5.54497 27.5133 4.69966 26.9548 4.52278 26.0889L1.32025 10.4108Z" fill="#4C4DDC"/>
<path d="M3.36844 12.4423C3.28001 12.0093 3.55928 11.5867 3.99222 11.4983L18.1025 8.61598C18.5354 8.52754 18.9581 8.80682 19.0465 9.23976C19.135 9.67269 18.8557 10.0954 18.4228 10.1838L4.31247 13.0661C3.87953 13.1545 3.45688 12.8752 3.36844 12.4423Z" fill="#F5F5F5"/>
<path d="M4.64945 18.7135C4.56102 18.2806 4.84029 17.8579 5.27323 17.7695L8.93145 17.0222C9.36439 16.9338 9.78705 17.2131 9.87548 17.646C9.96392 18.079 9.68464 18.5016 9.25171 18.59L5.59348 19.3373C5.16055 19.4257 4.73789 19.1465 4.64945 18.7135Z" fill="#F5F5F5"/>
<path d="M4.00895 15.5779C3.92051 15.145 4.19979 14.7223 4.63273 14.6339L10.904 13.3529C11.3369 13.2644 11.7596 13.5437 11.848 13.9766C11.9364 14.4096 11.6572 14.8322 11.2242 14.9207L4.95298 16.2017C4.52004 16.2901 4.09738 16.0108 4.00895 15.5779Z" fill="#F5F5F5"/>
<path d="M13.141 14.1805C13.0482 13.3016 13.6854 12.5139 14.5642 12.4211L30.4775 10.7402C31.3564 10.6474 32.1441 11.2846 32.237 12.1635L33.9178 28.0768C34.0107 28.9556 33.3735 29.7434 32.4946 29.8362L16.5813 31.5171C15.7024 31.6099 14.9147 30.9727 14.8219 30.0938L13.141 14.1805Z" fill="#DFE0F3"/>
<path d="M14.9844 16.3994C14.938 15.96 15.2566 15.5661 15.6961 15.5197L30.018 14.0069C30.4575 13.9605 30.8513 14.2791 30.8978 14.7185C30.9442 15.158 30.6256 15.5518 30.1861 15.5982L15.8642 17.111C15.4247 17.1575 15.0309 16.8388 14.9844 16.3994Z" fill="#4C4DDC"/>
<path d="M15.6568 22.7647C15.6104 22.3253 15.929 21.9314 16.3684 21.885L20.0815 21.4928C20.521 21.4464 20.9148 21.765 20.9612 22.2044C21.0076 22.6439 20.689 23.0377 20.2496 23.0842L16.5365 23.4764C16.0971 23.5228 15.7032 23.2042 15.6568 22.7647Z" fill="#4C4DDC"/>
<path d="M15.3206 19.5821C15.2742 19.1426 15.5928 18.7488 16.0322 18.7024L22.3976 18.03C22.837 17.9836 23.2309 18.3022 23.2773 18.7416C23.3237 19.1811 23.0051 19.5749 22.5657 19.6213L16.2003 20.2937C15.7609 20.3401 15.367 20.0215 15.3206 19.5821Z" fill="#4C4DDC"/>
</svg>
