<svg width="28" height="28" viewBox="0 0 28 28" fill="none" xmlns="http://www.w3.org/2000/svg">
<path d="M3.15788 6.33622C3.07068 5.54 3.64546 4.82385 4.44168 4.73665L18.8585 3.15789C19.6547 3.07069 20.3709 3.64547 20.4581 4.44169L22.0369 18.8585C22.1241 19.6548 21.5493 20.3709 20.7531 20.4581L6.33621 22.0369C5.53999 22.1241 4.82384 21.5493 4.73664 20.7531L3.15788 6.33622Z" fill="#DFE0F3"/>
<path d="M4.83638 8.34087C4.79278 7.94276 5.08017 7.58468 5.47828 7.54108L18.4534 6.12019C18.8516 6.0766 19.2096 6.36399 19.2532 6.7621C19.2968 7.16021 19.0094 7.51828 18.6113 7.56188L5.63616 8.98277C5.23805 9.02637 4.87997 8.73898 4.83638 8.34087Z" fill="#4C4DDC"/>
<path d="M5.46788 14.1076C5.42429 13.7095 5.71168 13.3514 6.10979 13.3078L9.47372 12.9394C9.87183 12.8958 10.2299 13.1832 10.2735 13.5813C10.3171 13.9795 10.0297 14.3375 9.63159 14.3811L6.26766 14.7495C5.86955 14.7931 5.51148 14.5057 5.46788 14.1076Z" fill="#4C4DDC"/>
<path d="M5.15213 11.2242C5.10853 10.8261 5.39592 10.4681 5.79403 10.4245L11.5608 9.79295C11.9589 9.74935 12.317 10.0367 12.3606 10.4349C12.4041 10.833 12.1168 11.191 11.7186 11.2346L5.95191 11.8661C5.5538 11.9097 5.19573 11.6223 5.15213 11.2242Z" fill="#4C4DDC"/>
<g clip-path="url(#clip0_131_138)">
<path fill-rule="evenodd" clip-rule="evenodd" d="M16.6985 22.0904C19.5155 22.8035 22.3772 21.0981 23.0904 18.2811C23.8036 15.4642 22.0981 12.6025 19.2812 11.8893C16.4642 11.1761 13.6025 12.8816 12.8893 15.6985C12.1761 18.5154 13.8816 21.3772 16.6985 22.0904ZM20.5621 16.7639C20.8741 16.578 20.9763 16.1743 20.7903 15.8622C20.6044 15.5502 20.2007 15.448 19.8887 15.634L17.2577 17.2019L16.6421 16.1689C16.4562 15.8569 16.0525 15.7547 15.7405 15.9406C15.4284 16.1266 15.3262 16.5302 15.5122 16.8423L16.4645 18.4402C16.6504 18.7523 17.0541 18.8545 17.3661 18.6685L20.5621 16.7639Z" fill="#4C4DDC"/>
</g>
<defs>
<clipPath id="clip0_131_138">
<rect width="13.1537" height="13.1537" fill="white" transform="translate(13.2283 9) rotate(14.2073)"/>
</clipPath>
</defs>
</svg>
