<svg width="16" height="16" viewBox="0 0 16 16" fill="none" xmlns="http://www.w3.org/2000/svg">
<path fill-rule="evenodd" clip-rule="evenodd" d="M7.99998 14.4C11.5346 14.4 14.4 11.5346 14.4 7.99998C14.4 4.46535 11.5346 1.59998 7.99998 1.59998C4.46535 1.59998 1.59998 4.46535 1.59998 7.99998C1.59998 11.5346 4.46535 14.4 7.99998 14.4ZM6.96566 5.83429C6.65324 5.52187 6.14671 5.52187 5.83429 5.83429C5.52187 6.14671 5.52187 6.65324 5.83429 6.96566L6.8686 7.99998L5.83429 9.03429C5.52187 9.34671 5.52187 9.85324 5.83429 10.1657C6.14671 10.4781 6.65324 10.4781 6.96566 10.1657L7.99998 9.13135L9.03429 10.1657C9.34671 10.4781 9.85324 10.4781 10.1657 10.1657C10.4781 9.85324 10.4781 9.34671 10.1657 9.03429L9.13135 7.99998L10.1657 6.96566C10.4781 6.65324 10.4781 6.14671 10.1657 5.83429C9.85324 5.52187 9.34671 5.52187 9.03429 5.83429L7.99998 6.8686L6.96566 5.83429Z" fill="#4C4DDC"/>
</svg>
